<svg xmlns="http://www.w3.org/2000/svg" viewBox="0 0 1358.92 992"><defs><style>.a{fill:#fff;}</style></defs><title>transparent background - vertical alternative - negative - 1 color</title><path class="a" d="M848.65,490.24,961.41,603H850.51l-186-186H779.6a93,93,0,0,0,0-186H742.16l-93-93H775.41a186,186,0,0,1,186,186C961.41,399.43,928.16,458.62,848.65,490.24Z"/><path class="a" d="M524.08,250.76,411.32,138h110.9l186,186H593.13a93,93,0,0,0,0,186h37.43l93,93H597.32a186,186,0,0,1-186-186C411.32,341.57,444.56,282.38,524.08,250.76Z"/><path class="a" d="M627,817.55c-20.6,0-36.14-17.29-36.14-40.22v-.41c0-22.7,15.54-39.82,36.14-39.82,12.46,0,22.27,4.95,31.58,16l26.76-20.71c-14-18.47-32.94-27.46-57.93-27.46-41.86,0-73.42,31.13-73.42,72.4v.4c0,19.93,7.45,38.26,21,51.6,13.33,13.15,31.38,20.39,50.81,20.39,26.24,0,45-9.22,60.55-29.84l-26.68-19C651,810.94,642,817.55,627,817.55Z"/><path class="a" d="M800.67,796.77c13-5.52,28.42-17.35,28.42-42.42v-.41c0-13.64-4-24.15-12.15-32.12-9.82-10-25.13-15.08-45.54-15.08H705.26v140.1H741.2V803.2h20.57l29,43.64H832l-33.62-49.11ZM793,756.82c0,11.77-9,19.08-23.4,19.08H741.2V737.33h28.14c15,0,23.61,6.95,23.61,19.08Z"/><polygon class="a" points="887.36 790.05 956.52 790.05 956.52 762.55 887.36 762.55 887.36 736.74 963.73 736.74 963.73 706.77 851.84 706.77 851.84 846.86 964.76 846.86 964.76 816.89 887.36 816.89 887.36 790.05"/><path class="a" d="M1101.86,726.27c-14.06-12.76-34.32-19.5-58.61-19.5H989.67V846.86h52.75c24.4,0,44.86-7,59.17-20.11,13.72-12.61,21-30,21-50.35V776C1122.56,755.75,1115.4,738.56,1101.86,726.27ZM1085.6,777c0,23.71-16,38.44-41.73,38.44h-18.26V738.17h18.26c25.74,0,41.73,14.73,41.73,38.44Z"/><path class="a" d="M466.93,705.08c-38.42,0-67.4,31.12-67.4,72.38,0,41.78,29.86,72.1,71,72.1,22.33,0,40.11-7.59,54.29-23.19l-14.2-12.59c-12.34,11.23-24.26,16-39.54,16-24.15,0-41.65-15.39-45.69-40.16l-.71-4.4H532.72c.13-1.74.24-3.51.24-5.32,0-20.76-5.92-39.5-16.68-52.77C504.57,712.72,487.51,705.08,466.93,705.08Zm-42.41,65.68.57-4.29c3.4-25.3,19.71-41.65,41.57-41.65,22.49,0,38.11,16,40.75,41.77l.43,4.17Z"/><path class="a" d="M297.07,704.79c-31.84,0-64.07,24.86-64.07,72.39,0,36,22,72.38,64.07,72.38,19.15,0,34.44-8.45,46.77-25.83l6.9-9.72v32.83h25.92V635.91H350.74V737.85l-6.81-8.76C331.25,712.74,315.93,704.79,297.07,704.79Zm54.22,72.39c0,29-19.85,50.89-46.18,50.89-26.6,0-45.91-21.4-45.91-50.89,0-30,18.88-50.9,45.91-50.9C331.44,726.28,351.29,748.16,351.29,777.18Z"/></svg>