<svg xmlns="http://www.w3.org/2000/svg" viewBox="0 0 1358.92 1315.3"><defs><style>.a{fill:#2dd8a3;}.b{fill:#2970ff;}.c{fill:#091440;}</style></defs><title>transparent background - vertical - positive - full color</title><path class="a" d="M934.16,698.25,1117.91,882H919.46l-294-294H823.91a147,147,0,1,0,0-294h-73.5l-147-147h220.5c162.38,0,294,131.63,294,294C1117.91,560.23,1059.11,656.36,934.16,698.25Z"/><path class="b" d="M419.66,330.75,235.91,147H434.36l294,294H529.91a147,147,0,0,0,0,294h73.5l147,147H529.91c-162.37,0-294-131.63-294-294C235.91,468.77,294.71,372.65,419.66,330.75Z"/><path class="c" d="M553.75,1098.92v-.41c0-41.67,32.06-74.35,75.36-74.35,29.21,0,48,12.26,60.66,29.83L660,1077.07c-8.17-10.22-17.56-16.76-31.24-16.76-20,0-34.12,17-34.12,37.79v.41c0,21.45,14.1,38.2,34.12,38.2,14.9,0,23.69-7,32.27-17.36l29.82,21.24c-13.48,18.58-31.66,32.27-63.32,32.27C586.63,1172.86,553.75,1141.61,553.75,1098.92Z"/><path class="c" d="M704.92,1026H773c22,0,37.23,5.73,46.9,15.61,8.44,8.22,12.75,19.33,12.75,33.53v.41c0,22-11.72,36.61-29.62,44.23L837.4,1170H791.32l-29-43.64H744.83V1170H704.92Zm66.24,69.09c13.58,0,21.39-6.58,21.39-17.07v-.41c0-11.31-8.23-17.07-21.59-17.07H744.83v34.55Z"/><path class="c" d="M851.39,1026H967.2v34H890.89v21.8H960v31.48H890.89v22.82h77.34v34H851.39Z"/><path class="c" d="M989.13,1026h55.54c51.42,0,81.25,29.62,81.25,71.18v.41c0,41.55-30.24,72.41-82.08,72.41H989.13Zm56.16,108.62c23.86,0,39.7-13.17,39.7-36.41v-.42c0-23-15.84-36.41-39.7-36.41H1029v73.24Z"/><path class="c" d="M472.35,1172.69c-42.27,0-72.94-31.14-72.94-74,0-42.37,29.81-74.32,69.36-74.32,21.18,0,38.77,7.88,50.86,22.81,11,13.61,17.11,32.79,17.11,54,0,2.44-.18,4.71-.4,7.3H428.88l.34,2.08c3.86,23.73,20.6,38.46,43.68,38.46,15.19,0,27.08-5,39.49-16.73l17,15.12C514.64,1164.4,496,1172.69,472.35,1172.69ZM468.49,1048c-20.78,0-36.31,15.65-39.56,39.88l-.27,2h78.77l-.2-2C504.7,1063.34,489.86,1048,468.49,1048Z"/><path class="c" d="M299,1172.69c-32.81,0-66-25.53-66-74.33S266.21,1024,299,1024c19.5,0,35.34,8.2,48.41,25.06l3.22,4.14V960.08h29.9V1170h-29.9v-28.56l-3.26,4.6C334.67,1164,318.85,1172.69,299,1172.69Zm8-123.19c-25.83,0-43.87,20.09-43.87,48.86,0,28.31,18.45,48.86,43.87,48.86,25.17,0,44.15-21,44.15-48.86S332.22,1049.5,307.05,1049.5Z"/></svg>