<svg width="136" height="32" fill="none" xmlns="http://www.w3.org/2000/svg"><g clip-path="url(#clip0)"><path d="M53.51 8a4.134 4.134 0 00-1.034-.757 3.858 3.858 0 00-.587-.25l.129-.063a2.9 2.9 0 00.676-.483 3.09 3.09 0 00.728-1.218c.158-.49.236-1.003.23-1.517a4.167 4.167 0 00-.246-1.462 2.971 2.971 0 00-.716-1.11C51.996.462 50.828 0 49.257 0h-8.241v14.64h8.835a5.724 5.724 0 002.027-.327 3.981 3.981 0 001.431-.92c.34-.349.6-.767.76-1.227.182-.506.274-1.04.27-1.578a5.111 5.111 0 00-.2-1.463A2.786 2.786 0 0053.51 8zm-3.242 3.393a1.49 1.49 0 01-.537.249 3.1 3.1 0 01-.781.09h-4.5V8.766h4.535c.448-.02.89.11 1.253.372.159.131.278.304.345.5.076.226.112.465.107.704.004.213-.03.424-.102.624a.999.999 0 01-.32.426zm-.38-7.692c.084.215.127.444.126.674a2.13 2.13 0 01-.125.757 1.306 1.306 0 01-.32.494c-.119.112-.26.197-.415.248a1.569 1.569 0 01-.517.079H44.45V2.894h3.885c.251-.005.502.022.746.08.184.044.355.13.5.25.14.134.248.298.314.48l-.007-.003zm7.189 10.938h3.56V-.001h-3.56v14.64zm5.719-11.621h4.639v11.62h3.56V3.019h4.654V0H62.796v3.018zm14.129 0h4.636v11.62h3.56V3.019h4.657V0H76.925v3.018zm26.955 4.018c.349-.603.549-1.48.549-2.585a6.822 6.822 0 00-.157-1.567 3.645 3.645 0 00-.506-1.192A3.126 3.126 0 00102.379.44 5.38 5.38 0 00100.07 0h-8.133v14.639h3.453V9.093h3.442l2.78 5.546h3.935l-3.366-6.231a2.84 2.84 0 001.699-1.372zm-3.08-1.312a.65.65 0 01-.161.2 1.19 1.19 0 01-.442.212 2.51 2.51 0 01-.651.077h-4.138V3.018h3.957c.33-.013.66.043.968.164.11.049.211.115.3.195.083.078.152.17.202.272.024.058.044.118.058.18.059.287.088.58.085.874a3.284 3.284 0 01-.05.551c-.023.162-.066.32-.128.47z" fill="#18222f"/><path d="M103.881 7.036h-.001v.001l.001-.001z" fill="#020003"/><path d="M111.197 8.864h7.542v-3.09h-7.542v-2.7h7.831V0h-11.266v14.639h11.356v-3.054h-7.921V8.864z" fill="#18222f"/><path d="M135.011 19.157H41.096V32h93.915V19.157z" fill="#1C6FE8"/><path d="M74.968 29.147l-.072-.667c-.38.441-.93.767-2.077.767-1.118 0-2.012-.397-2.535-1.055-.388-.489-.678-1.4-.678-2.6 0-1.037.118-1.805.651-2.527.46-.623 1.326-1.154 2.752-1.154 1.517 0 2.392.495 2.816 1.252.225.399.344.85.343 1.308h-1.517a1.251 1.251 0 00-.358-.804 1.694 1.694 0 00-1.236-.442c-.633 0-1.084.163-1.39.498-.306.334-.469.93-.469 1.905s.154 1.488.442 1.85c.236.29.759.524 1.446.524.91 0 1.56-.462 1.687-1.047v-.658h-2.061v-1.28h3.495v2.201c0 .875.01 1.895.01 1.922l-1.25.007zm2.282 0v-7.13h1.57v5.804h3.566v1.326H77.25zm11.551-6.092c.415.552.605 1.373.605 2.484 0 1.162-.226 1.967-.632 2.57-.495.74-1.443 1.138-2.842 1.138s-2.31-.38-2.825-1.12c-.442-.605-.65-1.453-.65-2.57 0-1.058.19-1.879.614-2.437.537-.74 1.417-1.21 2.863-1.21 1.415 0 2.327.407 2.867 1.145zm-1.452 4.396c.343-.344.488-1.091.488-1.877 0-.785-.145-1.499-.444-1.814-.298-.315-.676-.55-1.461-.55s-1.138.216-1.444.56c-.28.314-.442 1.046-.442 1.813 0 .804.18 1.542.537 1.904.29.29.67.48 1.363.48.735 0 1.115-.228 1.403-.516zm7.354 1.696h-4.322v-7.13h4.025c.767 0 1.326.226 1.651.538a1.65 1.65 0 01.451 1.218 1.82 1.82 0 01-.45 1.299c-.193.178-.43.301-.686.357.414.06.798.253 1.091.551.261.27.389.716.389 1.228.017.491-.158.97-.487 1.336-.361.368-.895.603-1.662.603zm-.072-5.685a1.027 1.027 0 00-.685-.19h-2.04v1.725h2.19c.197.01.39-.058.537-.19a.928.928 0 00.252-.696.894.894 0 00-.252-.65h-.002zm.587 3.628a.829.829 0 00-.261-.677 1.087 1.087 0 00-.687-.207h-2.363v1.678h2.345c.253.015.504-.052.716-.19a.73.73 0 00.25-.604zm3.529 2.057H97.15l2.762-7.13h1.968l2.608 7.13h-1.624l-.605-1.678h-2.871l-.64 1.678zm2.285-5.161l-.163-.587-.179.596-.812 2.184h1.911l-.757-2.193zm4.13 5.161v-7.13h1.571v5.804h3.565v1.326h-5.136z" fill="#fff"/><path d="M32 22.72V0H9.28v6.72h4.151V4.15h14.417v14.415h-5.129V9.283H0v22.719h22.72v-6.72h-4.151v2.568H4.15V13.433h5.133v9.286H32zm-13.435-4.153h-5.132v-5.134h5.132v5.134z" fill="#1C6FE8"/><path d="M129.681 7.005l-1.551-2.21L124.91 0h-4.116l5.057 7.245-5.373 7.394h4.019l.079-.115 3.188-4.59 3.166 4.705h4.1l-5.349-7.634z" fill="#18222f"/><path d="M130.463 2.526h2.04v1.991h2.528V0h-4.519v2.526h-.049z" fill="#1C6FE8"/></g><defs><clipPath id="clip0"><path fill="#18222f" d="M0 0h135.03v32H0z"/></clipPath></defs></svg>
