<svg xmlns="http://www.w3.org/2000/svg" viewBox="0 0 549.7 107.3" fill="#031123"><path d="M1.7 1.2h9.9v39.5l3.1-2.7a39.29 39.29 0 0145-7.6C75 37.7 84.5 54.3 82.5 70.3c-2.8 22.2-21.2 37.3-43.6 36-21-1.2-37.5-19-37.5-40.7l.1-62.8c-.2-.4-.1-.7.2-1.6zm10.1 65.1a30.1 30.1 0 1030.1-30.1 30.13 30.13 0 00-30.1 30.1zM356 38.5l.2-2.9c-.2-3.3 1.8-4.9 4.8-5 3.3 0 5.2 1.7 5.2 5.2v61.9c0 3.4-1.6 5.4-4.9 5.5s-5.2-1.8-5.1-5.2v-4.4c-11.6 10.6-24.3 15-39.3 11.8a38.87 38.87 0 01-23-14.4 39.66 39.66 0 012.6-52.3q22.95-24.15 59.5-.2zm-30.2 58a30.2 30.2 0 10-30.4-30 30.35 30.35 0 0030.4 30zm222.1-29.8c-.2 22.3-18.3 39.7-41.1 39.6a40.08 40.08 0 01-40.1-40.6c.2-22.1 18.5-39.6 41.3-39.4a40.18 40.18 0 0139.9 40.4zm-40.5-30.5a30.15 30.15 0 1030.2 30 30.41 30.41 0 00-30.2-30zm-309.7-5.7c11-.7 11-.7 15.1 8.4l22.4 50.4 2.4-4.8L259 36.3c2-4.9 4.5-7 9.8-6.1a27.5 27.5 0 004.2.2c-.6 1.7-1.1 3-1.6 4.3l-28.3 63.8c-1.6 3.8-3.9 4-7.2 3.9s-6.1.4-7.9-3.8l-28.7-64.7a18.26 18.26 0 01-1.6-3.4zm220.1 59l11.9-26.4c4.1-9.2 8.4-18.3 12.2-27.7 1.7-4.1 3.8-6 8.4-5.2 1.6.3 3.2 0 5.5 0l-7.6 17L425 99.4c-1.2 2.7-2.9 3.4-5.3 2.9-2.9-.6-6.7 2-8.7-2.4q-15.15-34.2-30.3-68.2a2.77 2.77 0 01-.1-.9c.3-.2.5-.4.7-.4 9.9-.4 9.9-.4 13.9 8.6l22.6 50.5zM163.6 30.3h17.6c3.6-.1 5.9 1.4 6 4.9s-2.3 5-5.9 4.9c-5.6-.1-11.2 0-17.3 0v62h-10.4V40.9c-4.1-2.1-12 2-11.5-6.1.4-6.7 6.9-3.6 11.3-4.9V2.3h10.2v28zm-56.3.2h9.9v71.7h-9.9zm-1.2-18.9a6 6 0 016.8-5.7c3.6.4 5.6 2.6 5.6 6.2 0 3.3-3.3 5.8-6.8 5.4-3.7-.4-5.4-2.6-5.6-5.9z"/></svg>