<?xml version="1.0" encoding="utf-8"?>
<svg version="1.1" id="Layer_2" xmlns="http://www.w3.org/2000/svg" xmlns:xlink="http://www.w3.org/1999/xlink" x="0px" y="0px"
	 viewBox="0 0 98 20" style="enable-background:new 0 0 98 20;" xml:space="preserve">
<style type="text/css">
	.st0{fill:url(#SVGID_1_);}
	.st1{fill:url(#SVGID_2_);}
	.st2{fill:url(#SVGID_3_);}
	.st3{fill:url(#SVGID_4_);}
	.st4{fill:url(#SVGID_5_);}
	.st5{fill:url(#SVGID_6_);}
	.st6{fill:url(#SVGID_7_);}
	.st7{fill:url(#SVGID_8_);}
	.st8{fill:url(#SVGID_9_);}
</style>
<g>
	<linearGradient id="SVGID_1_" gradientUnits="userSpaceOnUse" x1="0.1271" y1="11.0433" x2="125.502" y2="7.5951">
		<stop  offset="0" style="stop-color:#4400E2"/>
		<stop  offset="4.107781e-02" style="stop-color:#7013C5"/>
		<stop  offset="8.663340e-02" style="stop-color:#9A25AA"/>
		<stop  offset="0.1333" style="stop-color:#BC3494"/>
		<stop  offset="0.1804" style="stop-color:#D73F82"/>
		<stop  offset="0.2284" style="stop-color:#EA4876"/>
		<stop  offset="0.2776" style="stop-color:#F54C6E"/>
		<stop  offset="0.33" style="stop-color:#F94E6C"/>
		<stop  offset="1" style="stop-color:#FFD402"/>
	</linearGradient>
	<polygon class="st0" points="41.1,14 35.6,0.8 30.9,0.8 30.9,19 34.3,19 34.3,6.4 39.6,19 42.5,19 47.8,6.3 47.8,19 51.3,19
		51.3,0.8 46.4,0.8 	"/>
	<linearGradient id="SVGID_2_" gradientUnits="userSpaceOnUse" x1="0.2182" y1="14.3546" x2="125.5931" y2="10.9064">
		<stop  offset="0" style="stop-color:#4400E2"/>
		<stop  offset="4.107781e-02" style="stop-color:#7013C5"/>
		<stop  offset="8.663340e-02" style="stop-color:#9A25AA"/>
		<stop  offset="0.1333" style="stop-color:#BC3494"/>
		<stop  offset="0.1804" style="stop-color:#D73F82"/>
		<stop  offset="0.2284" style="stop-color:#EA4876"/>
		<stop  offset="0.2776" style="stop-color:#F54C6E"/>
		<stop  offset="0.33" style="stop-color:#F94E6C"/>
		<stop  offset="1" style="stop-color:#FFD402"/>
	</linearGradient>
	<path class="st1" d="M60.3,6c-3.2,0-6.2,2.6-6.2,6.6c0,4.3,3.1,6.7,6.5,6.7c3.1,0,5.1-1.8,5.8-4l-2.9-0.8c-0.4,1.1-1.3,1.9-2.9,1.9
		c-1.7,0-3.1-1.2-3.2-2.9h9c0-0.1,0.1-0.6,0.1-1.1C66.6,8.5,64.2,6,60.3,6z M57.6,11.3c0.1-1.2,1.1-2.5,2.8-2.5c2,0,2.8,1.2,2.8,2.5
		H57.6z"/>
	<linearGradient id="SVGID_3_" gradientUnits="userSpaceOnUse" x1="0.1778" y1="12.8869" x2="125.5527" y2="9.4387">
		<stop  offset="0" style="stop-color:#4400E2"/>
		<stop  offset="4.107781e-02" style="stop-color:#7013C5"/>
		<stop  offset="8.663340e-02" style="stop-color:#9A25AA"/>
		<stop  offset="0.1333" style="stop-color:#BC3494"/>
		<stop  offset="0.1804" style="stop-color:#D73F82"/>
		<stop  offset="0.2284" style="stop-color:#EA4876"/>
		<stop  offset="0.2776" style="stop-color:#F54C6E"/>
		<stop  offset="0.33" style="stop-color:#F94E6C"/>
		<stop  offset="1" style="stop-color:#FFD402"/>
	</linearGradient>
	<path class="st2" d="M73.5,2.6h-3.1v1.8c0,1.1-0.6,2-2,2h-0.6v3h2.3v5.9c0,2.4,1.5,3.9,4,3.9c1,0,1.6-0.2,1.9-0.3v-2.8
		c-0.2,0.1-0.6,0.1-1.1,0.1c-1,0-1.5-0.4-1.5-1.5V9.4H76v-3h-2.5V2.6z"/>
	<linearGradient id="SVGID_4_" gradientUnits="userSpaceOnUse" x1="0.236" y1="15.001" x2="125.6108" y2="11.5529">
		<stop  offset="0" style="stop-color:#4400E2"/>
		<stop  offset="4.107781e-02" style="stop-color:#7013C5"/>
		<stop  offset="8.663340e-02" style="stop-color:#9A25AA"/>
		<stop  offset="0.1333" style="stop-color:#BC3494"/>
		<stop  offset="0.1804" style="stop-color:#D73F82"/>
		<stop  offset="0.2284" style="stop-color:#EA4876"/>
		<stop  offset="0.2776" style="stop-color:#F54C6E"/>
		<stop  offset="0.33" style="stop-color:#F94E6C"/>
		<stop  offset="1" style="stop-color:#FFD402"/>
	</linearGradient>
	<path class="st3" d="M90.9,6.4h-3.3V8C87.3,7.2,86.3,6,84,6c-3.7,0-6.1,2.9-6.1,6.6c0,3.8,2.5,6.7,6.2,6.7c1.7,0,3-0.9,3.5-2.1v0.2
		c0,0.6,0.1,1.3,0.1,1.6H91c0-0.3-0.1-1.2-0.1-2.3V6.4z M84.5,16.4c-1.8,0-3.2-1.5-3.2-3.8c0-2.3,1.3-3.7,3.2-3.7
		c1.8,0,3.1,1.4,3.1,3.7C87.6,15,86.3,16.4,84.5,16.4z"/>
	<linearGradient id="SVGID_5_" gradientUnits="userSpaceOnUse" x1="0.1636" y1="12.3684" x2="125.5384" y2="8.9202">
		<stop  offset="0" style="stop-color:#4400E2"/>
		<stop  offset="4.107781e-02" style="stop-color:#7013C5"/>
		<stop  offset="8.663340e-02" style="stop-color:#9A25AA"/>
		<stop  offset="0.1333" style="stop-color:#BC3494"/>
		<stop  offset="0.1804" style="stop-color:#D73F82"/>
		<stop  offset="0.2284" style="stop-color:#EA4876"/>
		<stop  offset="0.2776" style="stop-color:#F54C6E"/>
		<stop  offset="0.33" style="stop-color:#F94E6C"/>
		<stop  offset="1" style="stop-color:#FFD402"/>
	</linearGradient>
	<polygon class="st4" points="94.6,0.4 94.6,19 94.6,19 98,19 98,0.4 98,0.4 	"/>
	<linearGradient id="SVGID_6_" gradientUnits="userSpaceOnUse" x1="0.114" y1="10.5651" x2="125.4888" y2="7.1169">
		<stop  offset="0" style="stop-color:#4400E2"/>
		<stop  offset="4.107781e-02" style="stop-color:#7013C5"/>
		<stop  offset="8.663340e-02" style="stop-color:#9A25AA"/>
		<stop  offset="0.1333" style="stop-color:#BC3494"/>
		<stop  offset="0.1804" style="stop-color:#D73F82"/>
		<stop  offset="0.2284" style="stop-color:#EA4876"/>
		<stop  offset="0.2776" style="stop-color:#F54C6E"/>
		<stop  offset="0.33" style="stop-color:#F94E6C"/>
		<stop  offset="1" style="stop-color:#FFD402"/>
	</linearGradient>
	<path class="st5" d="M23.2,0.5c-0.9,0-1.6,0.7-1.6,1.6v15.6c0,0.9,0.7,1.6,1.6,1.6c0.9,0,1.6-0.7,1.6-1.6V2.1
		C24.8,1.2,24.1,0.5,23.2,0.5z"/>
	<linearGradient id="SVGID_7_" gradientUnits="userSpaceOnUse" x1="9.764408e-02" y1="9.9706" x2="125.4725" y2="6.5225">
		<stop  offset="0" style="stop-color:#4400E2"/>
		<stop  offset="4.107781e-02" style="stop-color:#7013C5"/>
		<stop  offset="8.663340e-02" style="stop-color:#9A25AA"/>
		<stop  offset="0.1333" style="stop-color:#BC3494"/>
		<stop  offset="0.1804" style="stop-color:#D73F82"/>
		<stop  offset="0.2284" style="stop-color:#EA4876"/>
		<stop  offset="0.2776" style="stop-color:#F54C6E"/>
		<stop  offset="0.33" style="stop-color:#F94E6C"/>
		<stop  offset="1" style="stop-color:#FFD402"/>
	</linearGradient>
	<path class="st6" d="M1.6,0.5C0.7,0.5,0,1.2,0,2.1v15.6c0,0.9,0.7,1.6,1.6,1.6c0.9,0,1.6-0.7,1.6-1.6V2.1C3.2,1.2,2.5,0.5,1.6,0.5z
		"/>
	<linearGradient id="SVGID_8_" gradientUnits="userSpaceOnUse" x1="0.1031" y1="10.1688" x2="125.4779" y2="6.7206">
		<stop  offset="0" style="stop-color:#4400E2"/>
		<stop  offset="4.107781e-02" style="stop-color:#7013C5"/>
		<stop  offset="8.663340e-02" style="stop-color:#9A25AA"/>
		<stop  offset="0.1333" style="stop-color:#BC3494"/>
		<stop  offset="0.1804" style="stop-color:#D73F82"/>
		<stop  offset="0.2284" style="stop-color:#EA4876"/>
		<stop  offset="0.2776" style="stop-color:#F54C6E"/>
		<stop  offset="0.33" style="stop-color:#F94E6C"/>
		<stop  offset="1" style="stop-color:#FFD402"/>
	</linearGradient>
	<path class="st7" d="M8.8,3.8c-0.9,0-1.6,0.7-1.6,1.6v9.1c0,0.9,0.7,1.6,1.6,1.6c0.9,0,1.6-0.7,1.6-1.6V5.4
		C10.4,4.5,9.7,3.8,8.8,3.8z"/>
	<linearGradient id="SVGID_9_" gradientUnits="userSpaceOnUse" x1="0.1081" y1="10.3498" x2="125.4829" y2="6.9017">
		<stop  offset="0" style="stop-color:#4400E2"/>
		<stop  offset="4.107781e-02" style="stop-color:#7013C5"/>
		<stop  offset="8.663340e-02" style="stop-color:#9A25AA"/>
		<stop  offset="0.1333" style="stop-color:#BC3494"/>
		<stop  offset="0.1804" style="stop-color:#D73F82"/>
		<stop  offset="0.2284" style="stop-color:#EA4876"/>
		<stop  offset="0.2776" style="stop-color:#F54C6E"/>
		<stop  offset="0.33" style="stop-color:#F94E6C"/>
		<stop  offset="1" style="stop-color:#FFD402"/>
	</linearGradient>
	<path class="st8" d="M16,6.4c-0.9,0-1.6,0.7-1.6,1.6v3.9c0,0.9,0.7,1.6,1.6,1.6s1.6-0.7,1.6-1.6V8C17.6,7.1,16.9,6.4,16,6.4z"/>
</g>
</svg>
